HIERARCHY
ROOT Hips
{
  OFFSET -33.9132 29.2015 117.021
  CHANNELS 6 Xposition Yposition Zposition Zrotation Xrotation Yrotation
  JOINT LeftUpLeg
  {
    OFFSET 8.64259 1.95398 -2.38835
    CHANNELS 3 Zrotation Xrotation Yrotation
    JOINT LeftLeg
    {
      OFFSET 43.7702 0 0
      CHANNELS 3 Zrotation Xrotation Yrotation
      JOINT LeftFoot
      {
        OFFSET 40.6238 0 0
        CHANNELS 3 Zrotation Xrotation Yrotation
        JOINT LeftToeBase
        {
          OFFSET 12.7242 0 0
          CHANNELS 3 Zrotation Xrotation Yrotation
          End Site
          {
            OFFSET 0 0 0
          }
        }
      }
    }
  }
  JOINT RightUpLeg
  {
    OFFSET -8.2249 1.95398 -2.59336
    CHANNELS 3 Zrotation Xrotation Yrotation
    JOINT RightLeg
    {
      OFFSET 43.5653 0 0
      CHANNELS 3 Zrotation Xrotation Yrotation
      JOINT RightFoot
      {
        OFFSET 40.6238 0 0
        CHANNELS 3 Zrotation Xrotation Yrotation
        JOINT RightToeBase
        {
          OFFSET 12.7242 0 0
          CHANNELS 3 Zrotation Xrotation Yrotation
          End Site
          {
            OFFSET 0 0 0
          }
        }
      }
    }
  }
  JOINT Spine
  {
    OFFSET 0.165834 0.87714 6.61349
    CHANNELS 3 Zrotation Xrotation Yrotation
    JOINT Spine1
    {
      OFFSET 7.38963 1.71661e-005 0
      CHANNELS 3 Zrotation Xrotation Yrotation
      JOINT Spine2
      {
        OFFSET 11.9445 1.14441e-005 0
        CHANNELS 3 Zrotation Xrotation Yrotation
        JOINT Spine3
        {
          OFFSET 14.7254 4.19617e-005 0
          CHANNELS 3 Zrotation Xrotation Yrotation
          JOINT Spine4
          {
            OFFSET 10.9679 0 0
            CHANNELS 3 Zrotation Xrotation Yrotation
            JOINT RightShoulder
            {
              OFFSET 2.46616 -1.6653 3.69651
              CHANNELS 3 Zrotation Xrotation Yrotation
              JOINT RightArm
              {
                OFFSET 13.0012 0 0
                CHANNELS 3 Zrotation Xrotation Yrotation
                JOINT RightForeArm
                {
                  OFFSET 28.7848 1.62311e-005 0
                  CHANNELS 3 Zrotation Xrotation Yrotation
                  JOINT RightHand
                  {
                    OFFSET 26.5688 1.62095e-005 0
                    CHANNELS 3 Zrotation Xrotation Yrotation
                    End Site
                    {
                      OFFSET 0 0 0
                    }
                  }
                }
              }
            }
            JOINT LeftShoulder
            {
              OFFSET 2.38034 -1.29275 -3.7523
              CHANNELS 3 Zrotation Xrotation Yrotation
              JOINT LeftArm
              {
                OFFSET 16.3182 6.07031e-005 0
                CHANNELS 3 Zrotation Xrotation Yrotation
                JOINT LeftForeArm
                {
                  OFFSET 27.0901 0 0
                  CHANNELS 3 Zrotation Xrotation Yrotation
                  JOINT LeftHand
                  {
                    OFFSET 24.5451 1.51738e-005 0
                    CHANNELS 3 Zrotation Xrotation Yrotation
                    End Site
                    {
                      OFFSET 0 0 0
                    }
                  }
                }
              }
            }
            JOINT Neck
            {
              OFFSET 5.0226 -0.0266342 0
              CHANNELS 3 Zrotation Xrotation Yrotation
              JOINT Head
              {
                OFFSET 6.69364 2.86102e-005 0
                CHANNELS 3 Zrotation Xrotation Yrotation
                End Site
                {
                  OFFSET 0 0 0
                }
              }
            }
          }
        }
      }
    }
  }
}
MOTION
Frames:	6
Frame Time:	0.0416667
-12.6909 92.4528 -14.1228 -105.063 44.4238 -81.6929 -173.306 10.3564 87.9723 -51.1544 9.95878 0.531459 86.5339 18.1548 -0.766717 26.5689 -4.48193 7.63238 176.044 35.7112 87.7885 -87.3743 -5.79546 -3.90799 69.6878 -6.96713 -4.05738 16.4056 2.81298 8.06786 0.405268 8.47213 -89.8308 9.93088 0.88462 0.26256 -1.73975 0.895308 0.223363 -24.277 0.764801 0.516297 -4.26436 0.7648 0.516304 91.866 -28.9065 -103.399 31.5798 -0.905977 57.1795 -29.7775 9.39313 -111.488 -45.0445 19.061 -49.8394 -87.3471 -44.941 81.798 -9.51731 23.6989 2.07016 34.3422 22.4559 -56.9895 26.7005 -16.8705 -59.2217 6.57762 33.7066 7.32208 -11.2018 31.1813 11.5305 
-6.81765 93.0983 -8.30501 -104.934 44.4872 -82.7057 -174.324 16.0589 86.0394 -49.4306 10.9328 0.101277 78.2739 13.027 2.07419 24.5448 -3.56364 3.39506 173.665 27.7734 86.2199 -93.6604 -3.34959 -3.93257 67.3238 -5.99244 -4.51224 13.797 3.51701 8.9247 1.07537 8.4097 -89.8602 10.0549 2.2067 0.094152 -1.61422 2.2087 -0.00310584 -24.1631 2.07633 0.75329 -4.15043 2.07633 0.753287 92.6994 -24.6746 -103.133 29.1433 1.96146 52.0974 -27.9227 10.0107 -114.198 -46.3546 19.6556 -49.8036 -87.6271 -46.316 81.6142 -15.8222 21.5645 20.8399 33.9444 17.7064 -59.3784 22.5318 -15.6797 -63.6484 2.44158 33.3131 11.2116 -8.49083 30.859 10.0997 
-1.14314 95.4322 -3.16198 -108.647 44.2965 -79.6059 -175.14 14.9506 87.0275 -40.6193 13.0402 -0.0268782 68.5852 5.97011 2.16967 20.2698 -5.65047 3.1459 172.686 12.8272 85.336 -90.0786 -9.60522 -4.20359 61.3184 -2.02424 -4.81727 11.7894 4.06386 9.5207 1.83786 8.55758 -89.9531 9.76534 3.68482 -0.198879 -1.90044 3.6725 -0.361084 -24.4757 3.57402 0.919211 -4.4631 3.57401 0.919198 92.3689 -21.634 -105.061 27.2233 7.1782 50.004 -27.7261 10.7853 -115.836 -43.4674 18.7601 -50.8074 -85.4868 -44.1097 84.6383 -19.8245 21.9532 34.1698 32.4547 13.4232 -61.117 22.1246 -16.2308 -66.3827 -3.65278 31.4684 11.8168 -7.17302 29.7478 10.8788 
4.93363 98.1658 2.25044 -109.726 43.7739 -79.1931 -176.327 12.7487 87.499 -24.6211 15.2328 -0.270829 52.1445 -5.50244 -0.454625 18.2578 -4.36826 -1.04945 172.361 0.0266345 84.5589 -79.1566 -18.5053 -4.78175 57.0638 1.49944 -3.97389 12.4348 3.27859 10.8413 2.47829 8.4343 -89.9338 10.0181 4.96905 -0.278899 -1.64339 4.95196 -0.497879 -24.2519 4.82259 1.23099 -4.23929 4.8226 1.23098 93.2753 -16.9516 -104.888 27.0523 6.00089 49.6931 -25.8092 10.9031 -118.06 -43.7654 18.25 -49.3548 -83.9941 -39.9518 86.4995 -21.0971 22.2853 43.7055 31.2451 8.78179 -63.0771 17.3369 -14.3821 -71.6029 -8.67552 30.0247 12.1004 -6.95537 28.9708 9.4291 
11.811 99.0878 8.21474 -105.119 42.3818 -83.0168 -177.738 17.3685 87.2036 -18.9229 22.4295 -0.148886 53.9296 -4.49434 -2.57639 14.103 -11.1935 6.63098 172.863 -5.75855 86.9986 -67.6067 -18.5489 -4.42964 59.3881 0.202793 -1.44025 15.7199 1.88787 11.2949 2.58398 8.08408 -89.6742 10.7116 5.29593 0.160554 -0.948516 5.29785 -0.0733611 -23.5636 5.00217 1.74879 -3.55094 5.0022 1.74879 94.644 -12.3907 -103.438 26.675 5.70088 47.7287 -25.5757 11.467 -119.43 -41.6541 18.1703 -51.4435 -85.0515 -35.5068 83.9105 -22.599 18.0485 51.7864 33.5365 7.93352 -63.5837 16.2229 -14.6667 -75.7309 -6.45244 30.4306 11.6976 -9.03959 29.088 7.99205 
19.5927 98.5275 14.8629 -98.5545 40.647 -87.5448 -178.379 26.4548 87.2957 -25.0228 24.5556 -0.206165 56.7175 -2.513 -1.07417 17.2084 -9.38516 6.73596 174.588 -4.8546 90.0172 -59.1263 -16.6243 -3.82291 63.6394 -2.66622 -1.90269 18.1524 1.1638 10.8456 2.36503 7.81263 -89.4779 11.2448 4.94973 0.550531 -0.416742 4.96915 0.331599 -23.0177 4.55499 2.01564 -3.00504 4.55501 2.01565 95.3016 -10.3512 -102.526 26.2182 6.71075 47.0754 -19.8899 9.06926 -121.786 -35.9611 18.524 -59.3705 -85.5981 -34.2451 82.6876 -23.5696 17.9912 49.7614 33.2657 9.02706 -61.3097 18.9922 -16.8911 -75.9019 -2.07879 32.1736 14.2349 -8.74135 30.0675 6.56499 
